<svg width="1834" height="194" viewBox="0 0 1834 194" fill="none" xmlns="http://www.w3.org/2000/svg">
<path d="M1848 189.5C1559.95 147 1576.22 175.5 1222.5 175.5C868.777 175.5 866.393 162.5 565 185.5C565 75.8715 850.856 0 1204.58 0C1558.3 0 1848 79.8715 1848 189.5Z" fill="#1D5F20"/>
<path d="M829 183.5C613.212 207 714.277 183.5 446.935 183.5C179.593 183.5 179.5 190 -27 192.5C-27 83.1476 179.593 38 446.935 38C714.277 38 829 74.1476 829 183.5Z" fill="#164B18"/>
<path d="M1986.5 194C1553.86 194 1555.98 194 1001.68 194C447.377 194 438.999 194 0 194C259 75 447.377 75 1001.68 75C1555.98 75 1791.5 96.5 1986.5 194Z" fill="#0D3910"/>
</svg>
