<?xml version="1.0" encoding="utf-8"?>
<!-- Generator: Adobe Illustrator 19.2.1, SVG Export Plug-In . SVG Version: 6.00 Build 0)  -->
<svg version="1.1" id="layer" xmlns="http://www.w3.org/2000/svg" xmlns:xlink="http://www.w3.org/1999/xlink" x="0px" y="0px"
	 viewBox="0 0 652 652" style="enable-background:new 0 0 652 652;" xml:space="preserve">
<style type="text/css">
	.st0{fill:#FA4616;}
</style>
<g id="Page-1">
	<path id="UiPath_Logo_full" class="st0" d="M25,222.9h204.2v204.2H25V222.9z M208,405.9V244.1H46.2v161.7H208L208,405.9z
		 M64.6,275.6v61.7c0,28.2,15.5,44.9,41.7,44.9c27,0,42.5-16.7,42.5-44.9v-61.7h-21.2v61.7c0,15.9-6.9,24.9-20.8,24.9
		c-14.7,0-21.2-9.4-21.2-24.9v-61.7H64.6z M176.1,288.2c7.4,0,13.1-5.3,13.1-12.7c0-7.8-5.3-13.1-13.1-13.1
		c-7.4,0-13.1,5.3-13.1,13.1C163.1,282.9,168.8,288.2,176.1,288.2z M165.5,298V381h21.2V298H165.5z M292.1,347.1
		c22.9,0,38-13.5,38-35.9c0-21.6-14.7-35.5-38-35.5h-40v105.8h21.2v-33.9h18.8V347.1z M289.7,330.3h-16.7v-37.6h16.7
		c12.3,0,18.8,6.9,18.8,18.4C308.5,323.4,301.9,330.3,289.7,330.3z M337.1,339.7c0,24.9,15.9,42.5,38.4,42.5
		c13.5,0,22.1-4.9,27-12.7v11.8h21.2V298h-21.2v13.1c-5.3-8.6-13.9-13.9-27-13.9C352.6,297.2,337.1,315.2,337.1,339.7z M402.4,339.7
		c0,14.3-9,23.7-22.1,23.7c-14.3,0-21.6-10.2-21.6-23.7c0-14.7,8.2-24.1,21.6-24.1S402.4,325.4,402.4,339.7z M476.7,363
		c-8.2,0-10.2-3.7-10.2-11V316h18.4v-18h-18.4v-22.9h-21.2V298h-9.8v18h9.8V352c0,19.6,8.6,29,29,29h11v-18H476.7z M518,309.9v-39.2
		h-21.2v110.7H518v-44.1c0-14.3,7.4-22.9,20-22.9c12.3,0,18.8,8.2,18.8,20.8V381H578v-47.8c0-21.6-15.5-35.9-35.1-35.9
		C530.7,297.2,522.9,301.7,518,309.9z M576.4,270.3v3.3h6.9v21.2h4.1v-21.2h6.5v-3.3H576.4z M620.5,270.3l-8.6,19.6l-8.2-19.6h-4.9
		v24.5h3.7V276l8.2,18.8h2.9l7.8-18.8v18.8h3.7v-24.5H620.5L620.5,270.3z"/>
</g>
</svg>
